Coordinates
version=1
nRows=26
nColumns=22
inDegrees=yes

Units are S.I. units (second, meters, Newtons, ...)
If the header above contains a line with 'inDegrees', this indicates whether rotational values are in degrees (yes) or radians (no).

endheader
time	pelvis_tilt	pelvis_list	pelvis_rotation	pelvis_tx	pelvis_ty	pelvis_tz	hip_flexion_r	hip_adduction_r	hip_rotation_r	knee_angle_r	ankle_angle_r	subtalar_angle_r	hip_flexion_l	hip_adduction_l	hip_rotation_l	knee_angle_l	ankle_angle_l	subtalar_angle_l	lumbar_extension	lumbar_bending	lumbar_rotation
      2.11000000	     -0.65742179	      2.40077027	    -20.55254942	      0.28832560	      0.90071755	      0.33022886	     33.95640369	     -9.27991479	     -2.00052781	    -55.52999407	     10.08078234	    -12.62771364	     -7.39477021	      7.34170344	      3.71076819	    -26.38091618	     -1.35492676	     -1.75516974	    -13.09617084	      1.79891508	    -13.81436316
      2.12000000	     -0.86001344	      1.91737764	    -20.08977216	      0.30793862	      0.90738775	      0.34129860	     33.23849046	     -8.59582476	     -3.11328265	    -50.16317417	      8.86476542	    -10.77809162	     -8.54535133	      6.24653397	      4.16255207	    -25.80857382	     -5.32282303	     -0.59788350	    -12.50600909	      2.64995037	    -15.03114753
      2.13000000	     -0.92966882	      1.51182020	    -19.52581431	      0.32790322	      0.91372316	      0.35237296	     32.13477100	     -8.08468807	     -4.46257939	    -44.72677008	      7.30046553	     -8.69820244	     -9.52961835	      5.27718968	      4.78979612	    -25.62659629	     -9.03242573	      0.34707404	    -11.97229517	      3.35106684	    -16.17648147
      2.14000000	     -0.85155755	      1.18056990	    -18.87523453	      0.34814286	      0.91954275	      0.36349123	     30.71897402	     -7.69598234	     -6.01330426	    -39.40637722	      5.46416728	     -6.49446710	    -10.33394000	      4.42807741	      5.54413777	    -25.90568694	    -12.31183049	      1.06737941	    -11.51940946	      3.88499162	    -17.22763049
      2.15000000	     -0.65409627	      0.93797859	    -18.16605858	      0.36852425	      0.92461796	      0.37470170	     29.13807712	     -7.38208796	     -7.68211140	    -34.40959786	      3.46288261	     -4.17949006	    -10.89609508	      3.70077762	      6.34596850	    -26.70788619	    -15.04032062	      1.60445004	    -11.12254810	      4.23139568	    -18.17605953
      2.16000000	     -0.34558776	      0.76117205	    -17.44433480	      0.38889785	      0.92881433	      0.38602671	     27.49511798	     -7.08486729	     -9.37841050	    -29.91547656	      1.39682405	     -2.01687263	    -11.19606140	      3.08326950	      7.12946156	    -28.08153409	    -17.12327974	      1.95859458	    -10.80843045	      4.40891503	    -18.93895207
      2.17000000	     -0.01102765	      0.64826542	    -16.75830927	      0.40911067	      0.93190813	      0.39750839	     25.96384744	     -6.75859991	    -10.98285328	    -26.06884518	     -0.53030992	      0.06597881	    -11.13316115	      2.55454961	      7.80159917	    -30.04994372	    -18.60446649	      2.19782301	    -10.50034775	      4.44128808	    -19.48611096
      2.18000000	      0.39448706	      0.55018542	    -16.13661655	      0.42902700	      0.93394949	      0.40910790	     24.52746637	     -6.39253629	    -12.46023197	    -22.94001136	     -2.30264815	      1.71956331	    -10.78935508	      2.09140418	      8.34045896	    -32.57167488	    -19.43492500	      2.34501138	    -10.29769643	      4.37260180	    -19.81188246
      2.19000000	      0.80873175	      0.43337870	    -15.60751081	      0.44860659	      0.93483099	      0.42081586	     23.24602271	     -5.95734472	    -13.79376740	    -20.53617486	     -3.73584196	      2.95542420	    -10.13991805	      1.65163120	      8.73482333	    -35.58879573	    -19.73521038	      2.45417681	    -10.14491098	      4.26760500	    -19.87859909
      2.20000000	      1.21484877	      0.26757419	    -15.18344729	      0.46779230	      0.93452010	      0.43262720	     22.11730443	     -5.43820654	    -14.97820573	    -18.82649640	     -4.70782261	      3.55312534	     -9.20016970	      1.19177715	      8.96414030	    -39.03869175	    -19.57719723	      2.57272304	    -10.03994609	      4.16889835	    -19.70696559
      2.21000000	      1.66357890	      0.03447689	    -14.90754456	      0.48656997	      0.93313788	      0.44453131	     21.09179938	     -4.85283738	    -16.02754075	    -17.79926237	     -5.32558517	      3.80150122	     -8.10219079	      0.72526046	      9.06905378	    -42.77091807	    -19.14948274	      2.71386295	    -10.05739531	      4.08606231	    -19.20338325
      2.22000000	      2.15842039	     -0.27106324	    -14.73750109	      0.50497772	      0.93072654	      0.45646438	     20.08978112	     -4.20888777	    -16.93399005	    -17.31664585	     -5.42890935	      3.74491337	     -6.88156515	      0.22991939	      9.09210657	    -46.70946141	    -18.41619981	      2.87151168	    -10.18893560	      4.03892499	    -18.52223005
      2.23000000	      2.67080016	     -0.65278051	    -14.66468841	      0.52300639	      0.92728572	      0.46838339	     19.15589646	     -3.52299731	    -17.77862678	    -17.39057040	     -4.94516486	      2.97249756	     -5.52329067	     -0.31404391	      9.04587826	    -50.79693990	    -17.50877754	      2.94145503	    -10.40840794	      4.04578631	    -17.63564012
      2.24000000	      3.19030924	     -1.08750791	    -14.74923560	      0.54060296	      0.92287129	      0.48033686	     18.29203405	     -2.77873142	    -18.32688818	    -17.93256511	     -3.83557761	      1.59906543	     -4.05332080	     -0.87898027	      8.90478183	    -54.94372609	    -16.39131316	      3.00754661	    -10.70619734	      4.08167850	    -16.50615115
      2.25000000	      3.72114246	     -1.56928457	    -14.96476924	      0.55775354	      0.91761885	      0.49224179	     17.51079750	     -2.01398358	    -18.65928703	    -18.94910941	     -2.16600872	     -0.14622440	     -2.48207956	     -1.47203414	      8.68768752	    -59.09202417	    -15.14522403	      3.02758924	    -11.09485897	      4.14764568	    -15.18356082
      2.26000000	      4.23982334	     -2.09293289	    -15.29729250	      0.57443808	      0.91164878	      0.50405197	     16.82078130	     -1.21736317	    -18.71786271	    -20.37058533	      0.06039755	     -2.19177983	     -0.79175144	     -2.08893804	      8.43752578	    -63.19482284	    -13.77665531	      2.97362453	    -11.55280026	      4.24673613	    -13.69202091
      2.27000000	      4.70842096	     -2.65153888	    -15.73580583	      0.59063571	      0.90510161	      0.51571279	     16.25690951	     -0.37980462	    -18.49477010	    -22.14318185	      2.76395343	     -4.42026704	      1.06021407	     -2.73313677	      8.17571541	    -67.20766894	    -12.34891070	      2.83630154	    -12.04307086	      4.38807875	    -12.05092322
      2.28000000	      5.14362329	     -3.24183756	    -16.27366580	      0.60633897	      0.89821515	      0.52719396	     15.80269676	      0.50204139	    -17.98095778	    -24.22952336	      5.82546232	     -6.75370330	      3.04439501	     -3.40207082	      7.90770634	    -71.06668108	    -10.85368289	      2.61913981	    -12.59115963	      4.56907727	    -10.34258212
      2.29000000	      5.54959939	     -3.86970725	    -16.88160512	      0.62160219	      0.89127234	      0.53844762	     15.40422282	      1.44113568	    -17.25522541	    -26.51342170	      9.07113102	     -9.12465267	      5.13656432	     -4.08810311	      7.68466782	    -74.69871443	     -9.28088780	      2.33339567	    -13.20084220	      4.79557181	     -8.56361185
      2.30000000	      5.81279266	     -4.50170251	    -17.56777719	      0.63638774	      0.88432625	      0.54947643	     15.17516859	      2.46992929	    -16.26035888	    -28.92034094	     12.32544246	    -11.24878750	      7.49033457	     -4.79933608	      7.50079106	    -78.08528619	     -7.82739779	      2.01179476	    -13.73497292	      5.07069545	     -6.76646572
      2.31000000	      6.04575625	     -5.16983582	    -18.29360374	      0.65082755	      0.87785367	      0.56027945	     14.89996338	      3.58239562	    -15.15599105	    -31.28834426	     15.43093474	    -13.28873888	      9.92045340	     -5.52871168	      7.39363109	    -81.10659708	     -6.33729918	      1.64818251	    -14.31655634	      5.39103674	     -4.98798297
      2.32000000	      6.25399491	     -5.87425744	    -19.03250963	      0.66501043	      0.87212826	      0.57082412	     14.49868272	      4.77449295	    -13.99892313	    -33.47292987	     18.26784876	    -15.19809317	     12.39984548	     -6.26075451	      7.38054167	    -83.69295639	     -4.85759343	      1.24348932	    -14.93492167	      5.76133409	     -3.24878664
      2.33000000	      6.34086122	     -6.55184828	    -19.76371174	      0.67896583	      0.86715505	      0.58110473	     14.06172881	      6.00500818	    -12.81959893	    -35.40474446	     20.75666499	    -16.68090123	     15.05853650	     -6.95466414	      7.48048256	    -85.81772262	     -3.55650625	      0.85011932	    -15.44484571	      6.15188270	     -1.62460155
      2.34000000	      6.41736388	     -7.24603980	    -20.46255400	      0.69284831	      0.86334025	      0.59116155	     13.36029584	      7.26262513	    -11.69591019	    -36.91459191	     22.84308952	    -17.97029952	     17.68718093	     -7.61602581	      7.67534501	    -87.37135713	     -2.31011040	      0.43093133	    -15.95899080	      6.56852916	     -0.07678776
      2.35000000	      6.47979293	     -7.91131700	    -21.09752168	      0.70670847	      0.86075086	      0.60097288	     12.38947297	      8.47400629	    -10.66065212	    -37.95196539	     24.53621242	    -19.03932042	     20.27546848	     -8.18286770	      7.96217370	    -88.31237598	     -1.13730328	     -0.01221790	    -16.43706675	      6.96668750	      1.33683643
      2.36000000	      6.51491319	     -8.51551891	    -21.65890939	      0.72061163	      0.85941066	      0.61056321	     11.14985973	      9.59105218	     -9.72893866	    -38.46615256	     25.83682661	    -19.83075381	     22.79854559	     -8.62304108	      8.30989256	    -88.59991968	     -0.08220007	     -0.45725943	    -16.83143725	      7.31818231	      2.64132632
